<?xml version="1.0" encoding="UTF-8" standalone="no"?> <svg width="24" height="24" viewBox="0 0 24 24" fill="none" xmlns="http://www.w3.org/2000/svg">
<g clip-path="url(#clip0)">
<path fill-rule="evenodd" clip-rule="evenodd" d="M3.24255 11.0208C2.85202 10.6303 2.85202 9.9971 3.24255 9.60657L10.3136 2.53551C13.0473 -0.198164 17.4794 -0.198164 20.2131 2.53551C22.9468 5.26918 22.9468 9.70133 20.2131 12.435L11.0207 21.6274C9.0681 23.58 5.90228 23.58 3.94965 21.6274C1.99703 19.6748 1.99703 16.5089 3.94965 14.5563L11.7278 6.77815C12.8994 5.60657 14.7989 5.60657 15.9705 6.77815C17.142 7.94972 17.142 9.84921 15.9705 11.0208L10.3136 16.6776C9.92309 17.0682 9.28993 17.0682 8.8994 16.6776C8.50888 16.2871 8.50888 15.654 8.8994 15.2634L14.5563 9.60657C14.9468 9.21605 14.9468 8.58288 14.5563 8.19236C14.1657 7.80184 13.5326 7.80184 13.142 8.19236L5.36387 15.9705C4.19229 17.1421 4.1923 19.0416 5.36387 20.2132C6.53544 21.3847 8.43494 21.3847 9.60651 20.2132L18.7989 11.0208C20.7515 9.06817 20.7515 5.90234 18.7989 3.94972C16.8463 1.9971 13.6804 1.9971 11.7278 3.94972L4.65676 11.0208C4.26624 11.4113 3.63307 11.4113 3.24255 11.0208Z" fill="currentColor"/>
</g>
<defs>
<clipPath id="clip0">
<rect width="24" height="24" fill="transparent"/>
</clipPath>
</defs>
</svg>
